<?xml version="1.0" encoding="UTF-8" standalone="no"?>
<!-- Created with Inkscape (http://www.inkscape.org/) -->

<svg
   xmlns:dc="http://purl.org/dc/elements/1.1/"
   xmlns:cc="http://creativecommons.org/ns#"
   xmlns:rdf="http://www.w3.org/1999/02/22-rdf-syntax-ns#"
   xmlns:svg="http://www.w3.org/2000/svg"
   xmlns="http://www.w3.org/2000/svg"
   xmlns:sodipodi="http://sodipodi.sourceforge.net/DTD/sodipodi-0.dtd"
   xmlns:inkscape="http://www.inkscape.org/namespaces/inkscape"
   width="217.767"
   height="119.767"
   id="svg4052"
   version="1.1"
   inkscape:version="0.48.2 r9819"
   sodipodi:docname="Neckarsulm.svg">
  <defs
     id="defs4054" />
  <sodipodi:namedview
     id="base"
     pagecolor="#ffffff"
     bordercolor="#666666"
     borderopacity="1.0"
     inkscape:pageopacity="0.0"
     inkscape:pageshadow="2"
     inkscape:zoom="0.98994949"
     inkscape:cx="347.135"
     inkscape:cy="32.957801"
     inkscape:document-units="px"
     inkscape:current-layer="layer1"
     showgrid="false"
     fit-margin-left="0.3"
     fit-margin-bottom="0.3"
     fit-margin-right="0.3"
     fit-margin-top="0.3"
     inkscape:window-width="1366"
     inkscape:window-height="706"
     inkscape:window-x="-8"
     inkscape:window-y="-8"
     inkscape:window-maximized="1" />
  <metadata
     id="metadata4057">
    <rdf:RDF>
      <cc:Work
         rdf:about="">
        <dc:format>image/svg+xml</dc:format>
        <dc:type
           rdf:resource="http://purl.org/dc/dcmitype/StillImage" />
        <dc:title />
      </cc:Work>
    </rdf:RDF>
  </metadata>
  <g
     inkscape:label="Ebene 1"
     inkscape:groupmode="layer"
     id="layer1"
     transform="translate(-16.830787,-32.478681)">
    <path
       style="fill:#424242;fill-opacity:1"
       d="m 224.46477,72.528679 5.5,0 0,8 -5.5,0 z"
       id="rect405" />
    <path
       style="fill:#424242;fill-opacity:1"
       d="m 225.04778,56.903675 9,0 0,13.625 -9,0 z"
       id="rect407" />
    <path
       transform="translate(-31.973212,-187.87232)"
       style="fill:#424242;fill-opacity:1"
       d="m 83.521,304.276 11.75,2.375 1.375,-6 -13.125,-2.625 z"
       id="polygon409" />
    <path
       transform="matrix(0.9811988,0.19299976,-0.19299976,0.9811988,0,0)"
       style="fill:#424242;fill-opacity:1"
       d="m 59.910778,70.071091 34.400044,0 0,6.746008 -34.400044,0 z"
       id="rect411" />
    <path
       transform="matrix(0.98121774,0.19290349,-0.19290349,0.98121774,0,0)"
       style="fill:#424242;fill-opacity:1"
       d="m 47.747433,69.786461 9.498828,0 0,6.745878 -9.498828,0 z"
       id="rect413" />
    <path
       transform="matrix(0.9811988,0.19299976,-0.19299976,0.9811988,0,0)"
       style="fill:#424242;fill-opacity:1"
       d="m 38.144592,71.422394 4.883006,0 0,3.468004 -4.883006,0 z"
       id="rect415" />
    <path
       transform="matrix(0.98121774,0.19290349,-0.19290349,0.98121774,0,0)"
       style="fill:#424242;fill-opacity:1"
       d="m 45.975964,79.561272 13.543754,0 0,6.745877 -13.543754,0 z"
       id="rect417" />
    <path
       transform="matrix(0.98121774,0.19290349,-0.19290349,0.98121774,0,0)"
       style="fill:#424242;fill-opacity:1"
       d="m 62.249935,78.782707 11.777787,0 0,5.151907 -11.777787,0 z"
       id="rect419" />
    <path
       transform="matrix(0.98121774,0.19290349,-0.19290349,0.98121774,0,0)"
       style="fill:#424242;fill-opacity:1"
       d="m 62.441433,89.544289 11.777787,0 0,2.797949 -11.777787,0 z"
       id="rect421" />
    <path
       transform="matrix(-0.1928072,0.98123666,-0.98123666,-0.1928072,0,0)"
       style="fill:#424242;fill-opacity:1"
       d="m 89.590767,-65.191422 6.555755,0 0,2.797896 -6.555755,0 z"
       id="rect423" />
    <path
       transform="matrix(0.9811988,0.19299976,-0.19299976,0.9811988,0,0)"
       style="fill:#424242;fill-opacity:1"
       d="m 76.926468,65.222885 21.587026,0 0,3.492005 -21.587026,0 z"
       id="rect425" />
    <path
       transform="matrix(0.9811988,0.19299976,-0.19299976,0.9811988,0,0)"
       style="fill:#424242;fill-opacity:1"
       d="m 37.520817,64.801407 36.360046,0 0,3.492004 -36.360046,0 z"
       id="rect427" />
    <path
       style="fill:#424242;fill-opacity:1"
       d="m 26.047787,100.77666 2.5,0 0,6.25 -2.5,0 z"
       id="rect429" />
    <path
       style="fill:#424242;fill-opacity:1"
       d="m 30.047787,100.77666 3.25,0 0,7.75 -3.25,0 z"
       id="rect431" />
    <path
       style="fill:#424242;fill-opacity:1"
       d="m 17.214787,86.943687 8.416999,0 0,6.917 -8.416999,0 z"
       id="rect433" />
    <path
       style="fill:#424242;fill-opacity:1"
       d="m 17.130787,96.61068 7.25,0 0,5.25 -7.25,0 z"
       id="rect435" />
    <path
       style="fill:#424242;fill-opacity:1"
       d="m 18.630787,103.61068 3.667,0 0,3.75 -3.667,0 z"
       id="rect437" />
    <path
       style="fill:#424242;fill-opacity:1"
       d="m 52.547791,120.44467 8.416999,0 0,3.25 -8.416999,0 z"
       id="rect439" />
    <path
       style="fill:#424242;fill-opacity:1"
       d="m 56.71479,121.77768 4.167,0 0,5.417 -4.167,0 z"
       id="rect441" />
    <path
       transform="matrix(0.97107055,0.23879276,-0.23879276,0.97107055,0,0)"
       style="fill:#424242;fill-opacity:1"
       d="m 81.728661,86.326775 14.83345,0 0,5.500166 -14.83345,0 z"
       id="rect443" />
    <path
       transform="translate(-31.973212,-187.87232)"
       style="fill:#424242;fill-opacity:1"
       d="m 94.688,287.483 0.037,-6.024 14.213,2.191 -0.084,7.583 z"
       id="polygon445" />
    <path
       transform="translate(-31.973212,-187.87232)"
       style="fill:#424242;fill-opacity:1"
       d="m 94.353,238.735 -2.084,-0.25 -0.583,2.082 -2.75,-0.082 -3.917,18.999 -7.666,-1.416 0.416,-4.667 -2.5,-0.666 3.75,-22.25 21.667,4.166 -1.5,6.166 -5.083,-0.166 z"
       id="polygon447" />
    <path
       style="fill:#424242;fill-opacity:1"
       d="m 220.13179,91.028679 14.166,0 0,5.333 -14.166,0 z"
       id="rect451" />
    <path
       style="fill:#424242;fill-opacity:1"
       d="m 220.13179,98.195671 12.5,0 0,4.332999 -12.5,0 z"
       id="rect453" />
    <path
       id="path455"
       d="m 224.17279,109.40368 h -5.75 v 8.5 h 5.625 v 1.651 c 0.688,0.378 1.473,0.599 2.312,0.599 2.658,0 4.812,-2.154 4.812,-4.812 0,-0.458 -0.084,-0.893 -0.204,-1.312 h 2.579 v -8.875 h -9.375 v 4.249 z"
       inkscape:connector-curvature="0"
       style="fill:#424242;fill-opacity:1" />
    <path
       transform="translate(-31.973212,-187.87232)"
       style="fill:#424242;fill-opacity:1"
       d="m 237.646,318.901 0,-1.375 8.375,0 0,-42.875 -1.625,0 0,-5.5 -18.75,0 0,5.5 0,0.625 0,42.25 3.125,0 0,1.375 4.25,0 0,0.625 2,0 0,-0.625 z"
       id="polygon457" />
    <path
       id="path459"
       d="m 220.67279,81.65368 v -15.75 -6.375 h -6.25 -42.125 v 4.5 h -5.5 v -10.25 h 1.875 v 0.25 h 14.75 v -6.875 h -14.75 v 2.625 h -1.875 v -2.625 h -17 v 26.25 h 17 v -8 h 5.5 v 0.5 h 4.082 v 2.875 h -4.082 v 6.75 h -26.875 v -41.5 h -22.375 v 9.333 h -3.5 v 28.25 h 3.5 v 3.917 h -9.251 v -0.081 h 1.417 v -11.5 h -9.25 v -7.25 h -9.750002 v 16.667 h 3.75 v 1.333 0.75 4 h 13.833002 v -1.544 h 4.416 v 9.208 H 94.880788 v 4.416 h 23.332002 v 4.376 h -1.665 v 2.877 h -2.125 v -3.002 H 95.172788 v 25.875 h 7.000002 v 9 h 12 v -9 h 0.25 v -20.873 h 2.125 v 29.373 h 5.831 v 1.708 h 10.75 v -1.708 h 4.544 v -34.25 h -16.543 v -4.376 h 15.168 v -4.416 h -15.168 v -9.208 h 1.918 v 3.75 h 19.875 v 5 h -2.75 v 44.25 h 2.75 v 0.125 h 47.25 v -49.5 h -14.709 v -1.5 h 11.709 v -2.625 h 27.25 v 4.25 h 6.25 z m -70.959,-0.125 h -4.291 v -3.625 h 4.291 v 3.625 z m 24.584,0 h -14.166 v -3.625 h 12.166 v 2.125 h 2 v 1.5 z m 12.875,-12.75 h -1.188 -8.188 v -2.875 h 36.625 v 2.875 h -27.249 z"
       inkscape:connector-curvature="0"
       style="fill:#424242;fill-opacity:1" />
    <path
       style="fill:#424242;fill-opacity:1"
       d="m 95.922791,126.90368 3,0 0,3 -3,0 z"
       id="rect461" />
    <path
       style="fill:#424242;fill-opacity:1"
       d="m 108.62978,56.864681 6.667,0 0,5.666 -6.667,0 z"
       id="rect463" />
    <path
       transform="translate(-31.973212,-187.87232)"
       style="fill:#424242;fill-opacity:1"
       d="m 110.374,283.654 0,12.25 9.98,7.752 0,9.164 -9.667,0 0,4.833 10.917,0 0,-0.083 3.583,0 0,-13.916 0.021,0 0.333,-20 z"
       id="polygon465" />
    <path
       transform="translate(-31.973212,-187.87232)"
       style="fill:#424242;fill-opacity:1"
       d="m 106.969,301.901 -2.78,0 0,2.5 2.313,0 -0.732,3.919 13.083,3.583 1.5,-4.167 -13.167,-7 z"
       id="polygon467" />
    <path
       style="fill:#424242;fill-opacity:1"
       d="m 133.21179,133.19568 4.166,0 0,4.166 -4.166,0 z"
       id="rect469" />
    <path
       transform="translate(-31.973212,-187.87232)"
       style="fill:#424242;fill-opacity:1"
       d="m 193.852,339.818 0,-1.917 3.667,0 0,-12.833 -5.167,0 0,3.25 -22.917,0 0,11.5 z"
       id="polygon471" />
    <path
       style="fill:#424242;fill-opacity:1"
       d="m 81.172791,131.77869 7.5,0 0,2.625 -7.5,0 z"
       id="rect473" />
    <path
       style="fill:#424242;fill-opacity:1"
       d="m 156.46179,39.610683 3.25,0 0,3 -3.25,0 z"
       id="rect475" />
    <path
       style="fill:#424242;fill-opacity:1"
       d="m 188.37779,49.860683 2.75,0 0,5 -2.75,0 z"
       id="rect477" />
    <path
       style="fill:#424242;fill-opacity:1"
       d="m 193.21179,49.693676 2.166,0 0,2.167 -2.166,0 z"
       id="rect479" />
    <path
       style="fill:#424242;fill-opacity:1"
       d="m 162.0448,39.776684 2,0 0,3.084 -2,0 z"
       id="rect481" />
    <path
       transform="translate(-31.973212,-187.87232)"
       style="fill:#424242;fill-opacity:1"
       d="m 197.937,221.219 0,0.099 -4.249,0 0,4.25 4.249,0 0,5.349 3.668,0 0,-9.698 z"
       id="polygon483" />
    <path
       transform="translate(-31.973212,-187.87232)"
       style="fill:#424242;fill-opacity:1"
       d="m 207.185,225.649 -0.584,0 -3.666,0 0,5.334 4.25,0 0,-2.417 1.166,0 0,-2.917 z"
       id="polygon485" />
    <path
       style="fill:#424242;fill-opacity:1"
       d="m 154.13179,32.778683 2.416,0 0,2.917 -2.416,0 z"
       id="rect487" />
    <path
       style="fill:#424242;fill-opacity:1"
       d="m 157.7148,32.945675 2.167,0 0,4 -2.167,0 z"
       id="rect489" />
    <path
       style="fill:#424242;fill-opacity:1"
       d="m 181.7148,38.695675 5.167,0 0,4.167 -5.167,0 z"
       id="rect491" />
    <path
       style="fill:#424242;fill-opacity:1"
       d="m 93.71479,74.696678 3.083,0 0,5.167 -3.083,0 z"
       id="rect493" />
    <path
       style="fill:#424242;fill-opacity:1"
       d="m 63.88279,128.61168 4.5,0 0,2.5 -4.5,0 z"
       id="rect495" />
  </g>
</svg>
