<?xml version="1.0" encoding="UTF-8" standalone="no"?>
<!-- Generator: Adobe Illustrator 16.0.0, SVG Export Plug-In . SVG Version: 6.00 Build 0)  -->

<svg
   xmlns:dc="http://purl.org/dc/elements/1.1/"
   xmlns:cc="http://creativecommons.org/ns#"
   xmlns:rdf="http://www.w3.org/1999/02/22-rdf-syntax-ns#"
   xmlns:svg="http://www.w3.org/2000/svg"
   xmlns="http://www.w3.org/2000/svg"
   xmlns:sodipodi="http://sodipodi.sourceforge.net/DTD/sodipodi-0.dtd"
   xmlns:inkscape="http://www.inkscape.org/namespaces/inkscape"
   version="1.1"
   id="Ebene_1"
   x="0px"
   y="0px"
   width="538.58px"
   height="283.46px"
   viewBox="0 0 538.58 283.46"
   enable-background="new 0 0 538.58 283.46"
   xml:space="preserve"
   inkscape:version="0.48.2 r9819"
   sodipodi:docname="1 Hall Layout.svg"><metadata
   id="metadata63"><rdf:RDF><cc:Work
       rdf:about=""><dc:format>image/svg+xml</dc:format><dc:type
         rdf:resource="http://purl.org/dc/dcmitype/StillImage" /></cc:Work></rdf:RDF></metadata><defs
   id="defs61" /><sodipodi:namedview
   pagecolor="#ffffff"
   bordercolor="#666666"
   borderopacity="1"
   objecttolerance="10"
   gridtolerance="10"
   guidetolerance="10"
   inkscape:pageopacity="0"
   inkscape:pageshadow="2"
   inkscape:window-width="1920"
   inkscape:window-height="1018"
   id="namedview59"
   showgrid="false"
   inkscape:zoom="2.5622934"
   inkscape:cx="195.50611"
   inkscape:cy="127.70759"
   inkscape:window-x="-8"
   inkscape:window-y="-8"
   inkscape:window-maximized="1"
   inkscape:current-layer="Ebene_1" />

<path
   style="font-size:medium;font-style:normal;font-variant:normal;font-weight:normal;font-stretch:normal;text-indent:0;text-align:start;text-decoration:none;line-height:normal;letter-spacing:normal;word-spacing:normal;text-transform:none;direction:ltr;block-progression:tb;writing-mode:lr-tb;text-anchor:start;baseline-shift:baseline;color:#000000;fill:#424242;fill-opacity:1;stroke:none;stroke-width:1;marker:none;visibility:visible;display:inline;overflow:visible;enable-background:accumulate;font-family:Sans;-inkscape-font-specification:Sans;stroke-opacity:1"
   d="m 241.5,67.21875 0,0.5 0,30.5 0,0.5 0.5,0 213.5,0 0.5,0 0,-0.5 0,-30.5 0,-0.5 -0.5,0 -213.5,0 -0.5,0 z m 1,1 212.5,0 0,29.5 -212.5,0 0,-29.5 z"
   id="rect5"
   inkscape:connector-curvature="0" />
<path
   style="font-size:medium;font-style:normal;font-variant:normal;font-weight:normal;font-stretch:normal;text-indent:0;text-align:start;text-decoration:none;line-height:normal;letter-spacing:normal;word-spacing:normal;text-transform:none;direction:ltr;block-progression:tb;writing-mode:lr-tb;text-anchor:start;baseline-shift:baseline;color:#000000;fill:#424242;fill-opacity:1;stroke:none;stroke-width:1;marker:none;visibility:visible;display:inline;overflow:visible;enable-background:accumulate;font-family:Sans;-inkscape-font-specification:Sans;stroke-opacity:1"
   d="m 26,105.46875 0,0.5 0,41.5 0,0.5 0.5,0 59.5,0 0.5,0 0,-0.5 0,-16 12,0 0.5,0 0,-0.5 0,-25 0,-0.5 -0.5,0 -72,0 -0.5,0 z m 1,1 71,0 0,24 -12,0 -0.5,0 0,0.5 0,16 -58.5,0 0,-40.5 z"
   id="polygon7"
   inkscape:connector-curvature="0" />
<path
   style="font-size:medium;font-style:normal;font-variant:normal;font-weight:normal;font-stretch:normal;text-indent:0;text-align:start;text-decoration:none;line-height:normal;letter-spacing:normal;word-spacing:normal;text-transform:none;direction:ltr;block-progression:tb;writing-mode:lr-tb;text-anchor:start;baseline-shift:baseline;color:#000000;fill:#424242;fill-opacity:1;stroke:none;stroke-width:1;marker:none;visibility:visible;display:inline;overflow:visible;enable-background:accumulate;font-family:Sans;-inkscape-font-specification:Sans;stroke-opacity:1"
   d="m 98,105.46875 0,0.5 0,24.5 -12,0 -0.5,0 0,0.5 0,16.5 0,0.5 0.5,0 322.5,0 0.5,0 0,-0.5 0,-41.5 0,-0.5 -0.5,0 -310,0 -0.5,0 z m 1,1 309,0 0,40.5 -321.5,0 0,-15.5 12,0 0.5,0 0,-0.5 0,-24.5 z"
   id="polygon9"
   inkscape:connector-curvature="0" />
<path
   style="font-size:medium;font-style:normal;font-variant:normal;font-weight:normal;font-stretch:normal;text-indent:0;text-align:start;text-decoration:none;line-height:normal;letter-spacing:normal;word-spacing:normal;text-transform:none;direction:ltr;block-progression:tb;writing-mode:lr-tb;text-anchor:start;baseline-shift:baseline;color:#000000;fill:#424242;fill-opacity:1;stroke:none;stroke-width:1;marker:none;visibility:visible;display:inline;overflow:visible;enable-background:accumulate;font-family:Sans;-inkscape-font-specification:Sans;stroke-opacity:1"
   d="m 407.625,105.46875 0,0.5 0,41.5 0,0.5 0.5,0 36.25,0 0.5,0 0,-0.5 0,-16.375 0,-0.5 -0.5,0 -12,0 0,-24.625 0,-0.5 -0.5,0 -23.75,0 -0.5,0 z m 1,1 22.75,0 0,24.625 0,0.5 0.5,0 12,0 0,15.375 -35.25,0 0,-40.5 z"
   id="polygon11"
   inkscape:connector-curvature="0" />
<path
   style="font-size:medium;font-style:normal;font-variant:normal;font-weight:normal;font-stretch:normal;text-indent:0;text-align:start;text-decoration:none;line-height:normal;letter-spacing:normal;word-spacing:normal;text-transform:none;direction:ltr;block-progression:tb;writing-mode:lr-tb;text-anchor:start;baseline-shift:baseline;color:#000000;fill:#424242;fill-opacity:1;stroke:none;stroke-width:1;marker:none;visibility:visible;display:inline;overflow:visible;enable-background:accumulate;font-family:Sans;-inkscape-font-specification:Sans;stroke-opacity:1"
   d="m 431.375,105.46875 0,0.5 0,25.125 0,0.5 0.5,0 12,0 0,15.875 0,0.5 0.5,0 12.75,0 0.5,0 0,-0.5 0,-41.5 0,-0.5 -0.5,0 -25.25,0 -0.5,0 z m 1,1 24.25,0 0,40.5 -11.75,0 0,-15.875 0,-0.5 -0.5,0 -12,0 0,-24.125 z"
   id="polygon13"
   inkscape:connector-curvature="0" />
<path
   style="font-size:medium;font-style:normal;font-variant:normal;font-weight:normal;font-stretch:normal;text-indent:0;text-align:start;text-decoration:none;line-height:normal;letter-spacing:normal;word-spacing:normal;text-transform:none;direction:ltr;block-progression:tb;writing-mode:lr-tb;text-anchor:start;baseline-shift:baseline;color:#000000;fill:#424242;fill-opacity:1;stroke:none;stroke-width:1;marker:none;visibility:visible;display:inline;overflow:visible;enable-background:accumulate;font-family:Sans;-inkscape-font-specification:Sans;stroke-opacity:1"
   d="m 26,67.21875 0,0.5 0,30.5 0,0.5 0.5,0 207.25,0 0.5,0 0,-0.5 0,-30.5 0,-0.5 -0.5,0 -207.25,0 -0.5,0 z m 1,1 206.25,0 0,29.5 -206.25,0 0,-29.5 z"
   id="rect15"
   inkscape:connector-curvature="0" />
<path
   style="font-size:medium;font-style:normal;font-variant:normal;font-weight:normal;font-stretch:normal;text-indent:0;text-align:start;text-decoration:none;line-height:normal;letter-spacing:normal;word-spacing:normal;text-transform:none;direction:ltr;block-progression:tb;writing-mode:lr-tb;text-anchor:start;baseline-shift:baseline;color:#000000;fill:#424242;fill-opacity:1;stroke:none;stroke-width:0.99178135000000001;marker:none;visibility:visible;display:inline;overflow:visible;enable-background:accumulate;font-family:Sans;-inkscape-font-specification:Sans;stroke-opacity:1"
   d="m 303.5,34.625 0,0.5 0,25.65625 0,0.5 0.5,0 174.78125,0 0.46875,0 0,-0.5 0,-25.65625 0,-0.5 -0.46875,0 -174.78125,0 -0.5,0 z m 1,1 173.78125,0 0,24.6875 -173.78125,0 0,-24.6875 z"
   id="rect17"
   inkscape:connector-curvature="0" />
<path
   style="font-size:medium;font-style:normal;font-variant:normal;font-weight:normal;font-stretch:normal;text-indent:0;text-align:start;text-decoration:none;line-height:normal;letter-spacing:normal;word-spacing:normal;text-transform:none;direction:ltr;block-progression:tb;writing-mode:lr-tb;text-anchor:start;baseline-shift:baseline;color:#000000;fill:#424242;fill-opacity:1;stroke:none;stroke-width:1;marker:none;visibility:visible;display:inline;overflow:visible;enable-background:accumulate;font-family:Sans;-inkscape-font-specification:Sans;stroke-opacity:1"
   d="m 268.78125,34.625 0,0.5 0,25.65625 0,0.5 0.5,0 32.0625,0 0.5,0 0,-0.5 0,-25.65625 0,-0.5 -0.5,0 -32.0625,0 -0.5,0 z m 1,1 31.0625,0 0,24.65625 -31.0625,0 0,-24.65625 z"
   id="rect19"
   inkscape:connector-curvature="0" />
<path
   style="font-size:medium;font-style:normal;font-variant:normal;font-weight:normal;font-stretch:normal;text-indent:0;text-align:start;text-decoration:none;line-height:normal;letter-spacing:normal;word-spacing:normal;text-transform:none;direction:ltr;block-progression:tb;writing-mode:lr-tb;text-anchor:start;baseline-shift:baseline;color:#000000;fill:#424242;fill-opacity:1;stroke:none;stroke-width:0.98985922000000004;marker:none;visibility:visible;display:inline;overflow:visible;enable-background:accumulate;font-family:Sans;-inkscape-font-specification:Sans;stroke-opacity:1"
   d="m 119.5,34.625 0,0.5 0,25.65625 0,0.5 0.5,0 146.28125,0 0.5,0 0,-0.5 0,-25.65625 0,-0.5 -0.5,0 -146.28125,0 -0.5,0 z m 1,1 145.28125,0 0,24.6875 -145.28125,0 0,-24.6875 z"
   id="rect21"
   inkscape:connector-curvature="0" />
<path
   style="font-size:medium;font-style:normal;font-variant:normal;font-weight:normal;font-stretch:normal;text-indent:0;text-align:start;text-decoration:none;line-height:normal;letter-spacing:normal;word-spacing:normal;text-transform:none;direction:ltr;block-progression:tb;writing-mode:lr-tb;text-anchor:start;baseline-shift:baseline;color:#000000;fill:#424242;fill-opacity:1;stroke:none;stroke-width:1;marker:none;visibility:visible;display:inline;overflow:visible;enable-background:accumulate;font-family:Sans;-inkscape-font-specification:Sans;stroke-opacity:1"
   d="m 28.860346,16.3125 0,0.5 0,17.8125 -20.51689,0 -0.4863263,0 0,0.5 0,25.65625 0,0.5 0.4863263,0 108.602744,0 0.48632,0 0,-0.5 0,-25.65625 0,-0.5 -0.48632,0 -31.793586,0 0,-17.8125 0,-0.5 -0.486326,0 -55.319615,0 -0.486327,0 z m 0.972653,1 54.346963,0 0,17.8125 0,0.5 0.486326,0 31.793582,0 0,24.65625 -107.6300877,0 0,-24.65625 20.5168907,0 0.486326,0 0,-0.5 0,-17.8125 z"
   id="polygon23"
   inkscape:connector-curvature="0" />
<path
   style="font-size:medium;font-style:normal;font-variant:normal;font-weight:normal;font-stretch:normal;text-indent:0;text-align:start;text-decoration:none;line-height:normal;letter-spacing:normal;word-spacing:normal;text-transform:none;direction:ltr;block-progression:tb;writing-mode:lr-tb;text-anchor:start;baseline-shift:baseline;color:#000000;fill:#424242;fill-opacity:1;stroke:none;stroke-width:0.94070226000000001;marker:none;visibility:visible;display:inline;overflow:visible;enable-background:accumulate;font-family:Sans;-inkscape-font-specification:Sans;stroke-opacity:1"
   d="m 481.21875,34.65625 0,0.46875 0,37.34375 0,0.46875 0.46875,0 20.65625,0 0.46875,0 0,-0.46875 0,-37.34375 0,-0.46875 -0.46875,0 -20.65625,0 -0.46875,0 z m 0.9375,0.9375 19.71875,0 0,36.40625 -19.71875,0 0,-36.40625 z"
   id="rect25"
   inkscape:connector-curvature="0" />
<path
   style="font-size:medium;font-style:normal;font-variant:normal;font-weight:normal;font-stretch:normal;text-indent:0;text-align:start;text-decoration:none;line-height:normal;letter-spacing:normal;word-spacing:normal;text-transform:none;direction:ltr;block-progression:tb;writing-mode:lr-tb;text-anchor:start;baseline-shift:baseline;color:#000000;fill:#424242;fill-opacity:1;stroke:none;stroke-width:0.94167732999999998;marker:none;visibility:visible;display:inline;overflow:visible;enable-background:accumulate;font-family:Sans;-inkscape-font-specification:Sans;stroke-opacity:1"
   d="m 481.15625,79.0625 0,0.46875 0,65.9375 0,0.46875 0.5,0 20.6875,0 0.46875,0 0,-0.46875 0,-65.9375 0,-0.46875 -0.46875,0 -20.6875,0 -0.5,0 z M 482.125,80 l 19.75,0 0,65 -19.75,0 0,-65 z"
   id="rect27"
   inkscape:connector-curvature="0" />
<path
   style="font-size:medium;font-style:normal;font-variant:normal;font-weight:normal;font-stretch:normal;text-indent:0;text-align:start;text-decoration:none;line-height:normal;letter-spacing:normal;word-spacing:normal;text-transform:none;direction:ltr;block-progression:tb;writing-mode:lr-tb;text-anchor:start;baseline-shift:baseline;color:#000000;fill:#424242;fill-opacity:1;stroke:none;stroke-width:1;marker:none;visibility:visible;display:inline;overflow:visible;enable-background:accumulate;font-family:Sans;-inkscape-font-specification:Sans;stroke-opacity:1"
   d="m 462.3125,79.03125 0,0.5 0,10.1875 0,0.5 0.5,0 16.03125,0 0.5,0 0,-0.5 0,-10.1875 0,-0.5 -0.5,0 -16.03125,0 -0.5,0 z m 1,1 15.03125,0 0,9.1875 -15.03125,0 0,-9.1875 z"
   id="rect29"
   inkscape:connector-curvature="0" />
<path
   style="font-size:medium;font-style:normal;font-variant:normal;font-weight:normal;font-stretch:normal;text-indent:0;text-align:start;text-decoration:none;line-height:normal;letter-spacing:normal;word-spacing:normal;text-transform:none;direction:ltr;block-progression:tb;writing-mode:lr-tb;text-anchor:start;baseline-shift:baseline;color:#000000;fill:#424242;fill-opacity:1;stroke:none;stroke-width:1;marker:none;visibility:visible;display:inline;overflow:visible;enable-background:accumulate;font-family:Sans;-inkscape-font-specification:Sans;stroke-opacity:1"
   d="m 462.3125,92.625 0,0.5 0,73.21875 0,0.5 0.5,0 16.03125,0 0.5,0 0,-0.5 0,-73.21875 0,-0.5 -0.5,0 -16.03125,0 -0.5,0 z m 1,1 15.03125,0 0,72.21875 -15.03125,0 0,-72.21875 z"
   id="rect31"
   inkscape:connector-curvature="0" />
<path
   style="font-size:medium;font-style:normal;font-variant:normal;font-weight:normal;font-stretch:normal;text-indent:0;text-align:start;text-decoration:none;line-height:normal;letter-spacing:normal;word-spacing:normal;text-transform:none;direction:ltr;block-progression:tb;writing-mode:lr-tb;text-anchor:start;baseline-shift:baseline;color:#000000;fill:#424242;fill-opacity:1;stroke:none;stroke-width:1;marker:none;visibility:visible;display:inline;overflow:visible;enable-background:accumulate;font-family:Sans;-inkscape-font-specification:Sans;stroke-opacity:1"
   d="m 462.3125,165.84375 0,0.5 0,44.3125 0,0.5 0.5,0 16.03125,0 0.5,0 0,-0.5 0,-44.3125 0,-0.5 -0.5,0 -16.03125,0 -0.5,0 z m 1,1 15.03125,0 0,43.3125 -15.03125,0 0,-43.3125 z"
   id="rect33"
   inkscape:connector-curvature="0" />
<path
   style="font-size:medium;font-style:normal;font-variant:normal;font-weight:normal;font-stretch:normal;text-indent:0;text-align:start;text-decoration:none;line-height:normal;letter-spacing:normal;word-spacing:normal;text-transform:none;direction:ltr;block-progression:tb;writing-mode:lr-tb;text-anchor:start;baseline-shift:baseline;color:#000000;fill:#424242;fill-opacity:1;stroke:none;stroke-width:1;marker:none;visibility:visible;display:inline;overflow:visible;enable-background:accumulate;font-family:Sans;-inkscape-font-specification:Sans;stroke-opacity:1"
   d="m 462.3125,210.15625 0,0.5 0,29.46875 0,0.5 0.5,0 16.03125,0 0.5,0 0,-0.5 0,-29.46875 0,-0.5 -0.5,0 -16.03125,0 -0.5,0 z m 1,1 15.03125,0 0,28.46875 -15.03125,0 0,-28.46875 z"
   id="rect35"
   inkscape:connector-curvature="0" />
<path
   style="font-size:medium;font-style:normal;font-variant:normal;font-weight:normal;font-stretch:normal;text-indent:0;text-align:start;text-decoration:none;line-height:normal;letter-spacing:normal;word-spacing:normal;text-transform:none;direction:ltr;block-progression:tb;writing-mode:lr-tb;text-anchor:start;baseline-shift:baseline;color:#000000;fill:#424242;fill-opacity:1;stroke:none;stroke-width:0.94167732999999998;marker:none;visibility:visible;display:inline;overflow:visible;enable-background:accumulate;font-family:Sans;-inkscape-font-specification:Sans;stroke-opacity:1"
   d="m 481.15625,151.40625 0,0.46875 0,88.25 0,0.46875 0.5,0 20.6875,0 0.46875,0 0,-0.46875 0,-88.25 0,-0.46875 -0.46875,0 -20.6875,0 -0.5,0 z m 0.96875,0.9375 19.75,0 0,87.3125 -19.75,0 0,-87.3125 z"
   id="rect37"
   inkscape:connector-curvature="0" />
<path
   style="font-size:medium;font-style:normal;font-variant:normal;font-weight:normal;font-stretch:normal;text-indent:0;text-align:start;text-decoration:none;line-height:normal;letter-spacing:normal;word-spacing:normal;text-transform:none;direction:ltr;block-progression:tb;writing-mode:lr-tb;text-anchor:start;baseline-shift:baseline;color:#000000;fill:#424242;fill-opacity:1;stroke:none;stroke-width:0.94167732999999998;marker:none;visibility:visible;display:inline;overflow:visible;enable-background:accumulate;font-family:Sans;-inkscape-font-specification:Sans;stroke-opacity:1"
   d="m 481.15625,245.65625 0,0.46875 0,29.65625 0,0.46875 0.5,0 20.6875,0 0.46875,0 0,-0.46875 0,-29.65625 0,-0.46875 -0.46875,0 -20.6875,0 -0.5,0 z m 0.96875,0.9375 19.75,0 0,28.71875 -19.75,0 0,-28.71875 z"
   id="rect39"
   inkscape:connector-curvature="0" />
<path
   style="font-size:medium;font-style:normal;font-variant:normal;font-weight:normal;font-stretch:normal;text-indent:0;text-align:start;text-decoration:none;line-height:normal;letter-spacing:normal;word-spacing:normal;text-transform:none;direction:ltr;block-progression:tb;writing-mode:lr-tb;text-anchor:start;baseline-shift:baseline;color:#000000;fill:#424242;fill-opacity:1;stroke:none;stroke-width:1;marker:none;visibility:visible;display:inline;overflow:visible;enable-background:accumulate;font-family:Sans;-inkscape-font-specification:Sans;stroke-opacity:1"
   d="m 463.84375,245.625 0,0.5 0,29.65625 0,0.5 0.5,0 14.5,0 0.5,0 0,-0.5 0,-29.65625 0,-0.5 -0.5,0 -14.5,0 -0.5,0 z m 1,1 13.5,0 0,28.65625 -13.5,0 0,-28.65625 z"
   id="rect41"
   inkscape:connector-curvature="0" />
<path
   style="font-size:medium;font-style:normal;font-variant:normal;font-weight:normal;font-stretch:normal;text-indent:0;text-align:start;text-decoration:none;line-height:normal;letter-spacing:normal;word-spacing:normal;text-transform:none;direction:ltr;block-progression:tb;writing-mode:lr-tb;text-anchor:start;baseline-shift:baseline;color:#000000;fill:#424242;fill-opacity:1;stroke:none;stroke-width:1;marker:none;visibility:visible;display:inline;overflow:visible;enable-background:accumulate;font-family:Sans;-inkscape-font-specification:Sans;stroke-opacity:1"
   d="m 26,151.375 0,0.5 0,19.59375 0,0.5 0.5,0 430.625,0 0.5,0 0,-0.5 0,-19.59375 0,-0.5 -0.5,0 -430.625,0 -0.5,0 z m 1,1 429.625,0 0,18.59375 -429.625,0 0,-18.59375 z"
   id="rect43"
   inkscape:connector-curvature="0" />
<path
   style="font-size:medium;font-style:normal;font-variant:normal;font-weight:normal;font-stretch:normal;text-indent:0;text-align:start;text-decoration:none;line-height:normal;letter-spacing:normal;word-spacing:normal;text-transform:none;direction:ltr;block-progression:tb;writing-mode:lr-tb;text-anchor:start;baseline-shift:baseline;color:#000000;fill:#424242;fill-opacity:1;stroke:none;stroke-width:1;marker:none;visibility:visible;display:inline;overflow:visible;enable-background:accumulate;font-family:Sans;-inkscape-font-specification:Sans;stroke-opacity:1"
   d="m 26,175.875 0,0.5 0,19.59375 0,0.5 0.5,0 430.625,0 0.5,0 0,-0.5 0,-19.59375 0,-0.5 -0.5,0 -430.625,0 -0.5,0 z m 1,1 429.625,0 0,18.59375 -429.625,0 0,-18.59375 z"
   id="rect45"
   inkscape:connector-curvature="0" />
<path
   style="font-size:medium;font-style:normal;font-variant:normal;font-weight:normal;font-stretch:normal;text-indent:0;text-align:start;text-decoration:none;line-height:normal;letter-spacing:normal;word-spacing:normal;text-transform:none;direction:ltr;block-progression:tb;writing-mode:lr-tb;text-anchor:start;baseline-shift:baseline;color:#000000;fill:#424242;fill-opacity:1;stroke:none;stroke-width:1;marker:none;visibility:visible;display:inline;overflow:visible;enable-background:accumulate;font-family:Sans;-inkscape-font-specification:Sans;stroke-opacity:1"
   d="m 26,200.375 0,0.5 0,19.59375 0,0.5 0.5,0 430.625,0 0.5,0 0,-0.5 0,-19.59375 0,-0.5 -0.5,0 -430.625,0 -0.5,0 z m 1,1 429.625,0 0,18.59375 -429.625,0 0,-18.59375 z"
   id="rect47"
   inkscape:connector-curvature="0" />
<path
   style="font-size:medium;font-style:normal;font-variant:normal;font-weight:normal;font-stretch:normal;text-indent:0;text-align:start;text-decoration:none;line-height:normal;letter-spacing:normal;word-spacing:normal;text-transform:none;direction:ltr;block-progression:tb;writing-mode:lr-tb;text-anchor:start;baseline-shift:baseline;color:#000000;fill:#424242;fill-opacity:1;stroke:none;stroke-width:1;marker:none;visibility:visible;display:inline;overflow:visible;enable-background:accumulate;font-family:Sans;-inkscape-font-specification:Sans;stroke-opacity:1"
   d="m 26,224.875 0,0.5 0,19.59375 0,0.5 0.5,0 430.625,0 0.5,0 0,-0.5 0,-19.59375 0,-0.5 -0.5,0 -430.625,0 -0.5,0 z m 1,1 429.625,0 0,18.59375 -429.625,0 0,-18.59375 z"
   id="rect49"
   inkscape:connector-curvature="0" />
<path
   style="font-size:medium;font-style:normal;font-variant:normal;font-weight:normal;font-stretch:normal;text-indent:0;text-align:start;text-decoration:none;line-height:normal;letter-spacing:normal;word-spacing:normal;text-transform:none;direction:ltr;block-progression:tb;writing-mode:lr-tb;text-anchor:start;baseline-shift:baseline;color:#000000;fill:#424242;fill-opacity:1;stroke:none;stroke-width:1;marker:none;visibility:visible;display:inline;overflow:visible;enable-background:accumulate;font-family:Sans;-inkscape-font-specification:Sans;stroke-opacity:1"
   d="m 26,249.375 0,0.5 0,19.59375 0,0.5 0.5,0 430.625,0 0.5,0 0,-0.5 0,-19.59375 0,-0.5 -0.5,0 -430.625,0 -0.5,0 z m 1,1 429.625,0 0,18.59375 -429.625,0 0,-18.59375 z"
   id="rect51"
   inkscape:connector-curvature="0" />
<path
   style="font-size:medium;font-style:normal;font-variant:normal;font-weight:normal;font-stretch:normal;text-indent:0;text-align:start;text-decoration:none;line-height:normal;letter-spacing:normal;word-spacing:normal;text-transform:none;direction:ltr;block-progression:tb;writing-mode:lr-tb;text-anchor:start;baseline-shift:baseline;color:#000000;fill:#424242;fill-opacity:1;stroke:none;stroke-width:1;marker:none;visibility:visible;display:inline;overflow:visible;enable-background:accumulate;font-family:Sans;-inkscape-font-specification:Sans;stroke-opacity:1"
   d="m 7.84375,67.21875 0,0.5 0,34.75 0,0.5 0.5,0 11.65625,0 0.5,0 0,-0.5 0,-34.75 0,-0.5 -0.5,0 -11.65625,0 -0.5,0 z m 1,1 10.65625,0 0,33.75 -10.65625,0 0,-33.75 z"
   id="rect53"
   inkscape:connector-curvature="0" />
<path
   style="font-size:medium;font-style:normal;font-variant:normal;font-weight:normal;font-stretch:normal;text-indent:0;text-align:start;text-decoration:none;line-height:normal;letter-spacing:normal;word-spacing:normal;text-transform:none;direction:ltr;block-progression:tb;writing-mode:lr-tb;text-anchor:start;baseline-shift:baseline;color:#000000;fill:#424242;fill-opacity:1;stroke:none;stroke-width:1;marker:none;visibility:visible;display:inline;overflow:visible;enable-background:accumulate;font-family:Sans;-inkscape-font-specification:Sans;stroke-opacity:1"
   d="m 7.84375,105.46875 0,0.5 0,41.5 0,0.5 0.5,0 11.65625,0 0.5,0 0,-0.5 0,-41.5 0,-0.5 -0.5,0 -11.65625,0 -0.5,0 z m 1,1 10.65625,0 0,40.5 -10.65625,0 0,-40.5 z"
   id="rect55"
   inkscape:connector-curvature="0" />
<path
   style="font-size:medium;font-style:normal;font-variant:normal;font-weight:normal;font-stretch:normal;text-indent:0;text-align:start;text-decoration:none;line-height:normal;letter-spacing:normal;word-spacing:normal;text-transform:none;direction:ltr;block-progression:tb;writing-mode:lr-tb;text-anchor:start;baseline-shift:baseline;color:#000000;fill:#424242;fill-opacity:1;stroke:none;stroke-width:1;marker:none;visibility:visible;display:inline;overflow:visible;enable-background:accumulate;font-family:Sans;-inkscape-font-specification:Sans;stroke-opacity:1"
   d="m 7.84375,151.375 0,0.5 0,99.59375 0,0.5 0.5,0 11.65625,0 0.5,0 0,-0.5 0,-99.59375 0,-0.5 -0.5,0 -11.65625,0 -0.5,0 z m 1,1 10.65625,0 0,98.59375 -10.65625,0 0,-98.59375 z"
   id="rect57"
   inkscape:connector-curvature="0" />
</svg>