<?xml version="1.0" encoding="UTF-8" standalone="no"?>
<!-- Created with Inkscape (http://www.inkscape.org/) -->

<svg
   xmlns:dc="http://purl.org/dc/elements/1.1/"
   xmlns:cc="http://creativecommons.org/ns#"
   xmlns:rdf="http://www.w3.org/1999/02/22-rdf-syntax-ns#"
   xmlns:svg="http://www.w3.org/2000/svg"
   xmlns="http://www.w3.org/2000/svg"
   version="1.1"
   width="221.57703"
   height="165.85001"
   id="svg3823">
  <defs
     id="defs3825" />
  <metadata
     id="metadata3828">
    <rdf:RDF>
      <cc:Work
         rdf:about="">
        <dc:format>image/svg+xml</dc:format>
        <dc:type
           rdf:resource="http://purl.org/dc/dcmitype/StillImage" />
        <dc:title></dc:title>
      </cc:Work>
    </rdf:RDF>
  </metadata>
  <path
     d="m 159.97063,4.344321 -6,0 0,-3.75 -16.125,0 0,3.75 -3.125,0 0,37.125 25.25,0 z"
     id="polygon249"
     style="fill:#e7c41a" />
  <path
     d="m 187.97063,45.469326 22.625,0 0,18.875 -22.625,0 z"
     id="rect251"
     style="fill:#e7c41a" />
  <path
     d="m 190.72063,82.719321 0,2 5.375,0 0,1.125 14.75,0 0,-10 -11.875,0 0,-3 12.125,0 0,-4.625 -21.625,0 0,4.625 7.5,0 0,3 -0.875,0 -3,0 0,-1.625 -6.5,0 0,1.875 2.25,0 0,3.5 -2.625,0 0,3.125 z"
     id="polygon253"
     style="fill:#e7c41a" />
  <path
     d="m 214.34566,67.46933 7,0 0,17.5 -7,0 z"
     id="rect255"
     style="fill:#e7c41a" />
  <path
     d="m 182.97063,67.001321 0,1.218 -9,0 0,5.25 5.75,0 0,2 -7.5,0 0,2.875 7.5,5.75 3.625,0 0,-10.625 1.25,0 0,-0.343 0,-4.907 0,-1.218 z"
     id="polygon257"
     style="fill:#e7c41a" />
  <path
     d="m 127.72063,12.969321 -11.125,0 0,2.875 -8.749,0 0,6.375 8.749,0 0,0.125 11.125,0 z"
     id="polygon259"
     style="fill:#e7c41a" />
  <path
     d="m 103.55464,126.84633 5.667,0 0,3.835 -5.667,0 z"
     id="rect261"
     style="fill:#e7c41a" />
  <path
     d="m 112.13664,127.18134 3.417,0 0,3.5 -3.417,0 z"
     id="rect263"
     style="fill:#e7c41a" />
  <path
     d="m 114.30364,127.18134 2.25,0 0,6 -2.25,0 z"
     id="rect265"
     style="fill:#e7c41a" />
  <path
     d="m 167.49639,135.86053 -7.61136,5.04927 -8.79782,-13.26197 7.61136,-5.04927 z"
     id="rect267"
     style="fill:#e7c41a" />
  <path
     d="m 134.88563,141.59832 16.193,-9.889 -3.11,-4.528 -6.998,4.528 0.832,1.472 -7.5,5.917 0,-3 -5.082,0 0,5.5 z"
     id="polygon269"
     style="fill:#e7c41a" />
  <path
     d="m 179.78208,128.1621 -6.30399,4.92702 -3.70897,-4.74553 6.30399,-4.92701 z"
     id="rect271"
     style="fill:#e7c41a" />
  <path
     d="m 143.91644,144.37019 -3.7003,2.89288 -2.17659,-2.78408 3.7003,-2.89289 z"
     id="rect273"
     style="fill:#e7c41a" />
  <path
     d="m 204.50183,112.48552 -6.3032,4.9272 -3.70956,-4.74551 6.3032,-4.9272 z"
     id="rect275"
     style="fill:#e7c41a" />
  <path
     d="m 211.31095,111.65341 -3.00701,2.34952 -1.67039,-2.13785 3.00701,-2.34951 z"
     id="rect277"
     style="fill:#e7c41a" />
  <path
     d="m 207.73634,126.67218 -11.76729,9.19697 -6.98009,-8.93085 11.76729,-9.19697 z"
     id="rect279"
     style="fill:#e7c41a" />
  <path
     d="m 186.82163,99.68632 -24.869,16.461 6.721,10.15201 24.611,-16.28901 v 0.001 l 0.043,-0.03 0.215,-0.143 -0.004,-0.008 6.287,-4.486 c 0,0 -2.299,-8.065 -13.004,-5.658 z"
     id="path281"
     style="fill:#e7c41a" />
  <path
     d="m 158.65962,91.28133 3.293,0 0,10.113 -3.293,0 z"
     id="rect283"
     style="fill:#e7c41a" />
  <path
     d="m 160.30464,97.59433 6.479,0 0,2.75 -6.479,0 z"
     id="rect285"
     style="fill:#e7c41a" />
  <path
     d="m 160.59563,91.28133 2.438,0 0,2.938 -2.438,0 z"
     id="rect287"
     style="fill:#e7c41a" />
  <path
     d="m 164.59563,92.75132 2.894,0 0,2.719 -2.894,0 z"
     id="rect289"
     style="fill:#e7c41a" />
  <path
     d="m 157.97063,104.03133 6.625,0 0,4.938 -6.625,0 z"
     id="rect291"
     style="fill:#e7c41a" />
  <path
     d="m 163.03462,104.03133 5.312,0 0,3.709 -5.312,0 z"
     id="rect293"
     style="fill:#e7c41a" />
  <path
     d="m 170.53462,99.68633 3.75,0 0,4.033 -3.75,0 z"
     id="rect295"
     style="fill:#e7c41a" />
  <path
     d="m 169.73964,92.75132 3.856,0 0,5.28 -3.856,0 z"
     id="rect297"
     style="fill:#e7c41a" />
  <path
     d="m 172.22063,92.75132 7.062,0 0,1.719 -7.062,0 z"
     id="rect299"
     style="fill:#e7c41a" />
  <path
     d="m 178.15962,95.03133 5.688,0 0,3.938 -5.688,0 z"
     id="rect301"
     style="fill:#e7c41a" />
  <path
     d="m 158.28462,85.84433 11.938,0 0,3.188 -11.938,0 z"
     id="rect303"
     style="fill:#e7c41a" />
  <path
     d="m 32.555618,99.92433 11.333,0 0,6.795 -11.333,0 z"
     id="rect305"
     style="fill:#e7c41a" />
  <path
     d="m 45.971634,111.75833 2,0 0,9.505 -2,0 z"
     id="rect307"
     style="fill:#e7c41a" />
  <path
     d="m 1.305618,91.25833 13.916001,0 0,3.043 -13.916001,0 z"
     id="rect309"
     style="fill:#e7c41a" />
  <path
     d="m 5.80563,76.719321 3.916,7.522 10.417,0 0,-7.522 z"
     id="polygon311"
     style="fill:#e7c41a" />
  <path
     d="m 47.971634,87.006332 4.25,0 0,1.671998 -4.25,0 z"
     id="rect313"
     style="fill:#e7c41a" />
  <path
     d="m 61.88863,39.532321 10.75,0 0,-8.026 -10.75,0 0,4.541 -2.333,0 0,-2.458 -5.167,0 0,3.917 -2.917,0 0,8.09 4.25,0 0,-7.09 0.666,0 0,6.257 3.168,0 0,-6.257 2.333,0 z"
     id="polygon315"
     style="fill:#e7c41a" />
  <path
     d="m 65.387619,41.469326 5.25,0 0,2.87 -5.25,0 z"
     id="rect317"
     style="fill:#e7c41a" />
  <path
     d="m 65.387619,53.71933 5.25,0 0,2.87 -5.25,0 z"
     id="rect319"
     style="fill:#e7c41a" />
  <path
     d="m 65.387619,45.344326 5.25,0 0,7.245 -5.25,0 z"
     id="rect321"
     style="fill:#e7c41a" />
  <path
     d="m 8.24663,59.305321 -1.451,-13.547 8.692,-0.967 1.806,16.123 -6.164,0.66 -0.273,-2.548 z"
     id="polygon323"
     style="fill:#e7c41a" />
  <path
     d="m 38.821978,81.701589 -10.94426,1.172246 -0.447087,-4.174072 10.94426,-1.172245 z"
     id="rect325"
     style="fill:#e7c41a" />
  <path
     d="M 52.619687,79.044594 41.676421,80.216733 41.229334,76.042662 52.1726,74.870523 z"
     id="rect327"
     style="fill:#e7c41a" />
  <path
     d="m 61.974878,78.168454 -7.439353,0.796833 -0.397032,-3.706751 7.439353,-0.796833 z"
     id="rect329"
     style="fill:#e7c41a" />
  <path
     d="m 35.17863,72.791321 17.441,-1.868 -0.177,-1.677 -17.444,1.867 -0.618,-5.77 -9.085,0.969 1.176,10.979 9.084,-0.973 z"
     id="polygon331"
     style="fill:#e7c41a" />
  <path
     d="m 42.491403,68.862412 -6.218351,0.664174 -0.340265,-3.185737 6.218351,-0.664175 z"
     id="rect333"
     style="fill:#e7c41a" />
  <path
     d="m 45.58263,64.215321 -1.891,0.202 0.341,3.185 1.584,-0.169 0.142,1.322 5.145,-0.55 -0.332,-3.101 -2.344,0.251 -0.248,-2.33 -2.495,0.266 z"
     id="polygon335"
     style="fill:#e7c41a" />
  <path
     d="m 52.755653,63.946244 -3.72005,0.39692 -0.239149,-2.241378 3.720049,-0.39692 z"
     id="rect337"
     style="fill:#e7c41a" />
  <path
     d="m 57.404416,67.307784 -5.538251,0.592091 -0.239706,-2.242146 5.53825,-0.592091 z"
     id="rect339"
     style="fill:#e7c41a" />
  <path
     d="m 63.886642,61.574326 6.417,0 0,2.770999 -6.417,0 z"
     id="rect341"
     style="fill:#e7c41a" />
  <path
     d="m 62.721634,65.343323 8.915,0 0,2.537 -8.915,0 z"
     id="rect343"
     style="fill:#e7c41a" />
  <path
     d="m 66.636642,69.246323 5,0 0,2.599 -5,0 z"
     id="rect345"
     style="fill:#e7c41a" />
  <path
     d="m 58.555618,62.496323 2.082,0 0,4.849 -2.082,0 z"
     id="rect347"
     style="fill:#e7c41a" />
  <path
     d="m 58.555618,58.305328 4.166,0 0,2.88 -4.166,0 z"
     id="rect349"
     style="fill:#e7c41a" />
  <path
     d="m 53.59663,57.022321 10.29,0 0,-6.259 0,-1.003 0,-4.416 -3.249,0 0,1.833 -8.416,0 0,3.586 1.375,0 z"
     id="polygon351"
     style="fill:#e7c41a" />
  <path
     d="m 45.30363,23.422321 -2.5,0 0,5.921 0,2.163 2.5,0 1.039,0 2.627,0 0,-2.163 0,-2.834 -2.627,0 0,2.834 -1.039,0 z"
     id="polygon353"
     style="fill:#e7c41a" />
  <path
     d="m 56.38763,29.343321 -3.768,0 0,-1.542 -2.15,0 0,3.208 0.417,0 1.733,0 3.768,0 z"
     id="polygon355"
     style="fill:#e7c41a" />
  <path
     d="M 32.981776,34.661429 18.964135,36.162866 17.593906,23.370202 31.611546,21.868765 z"
     id="rect357"
     style="fill:#e7c41a" />
  <path
     d="m 39.404759,32.454644 -5.042095,0.540062 -0.492882,-4.60162 5.042095,-0.540062 z"
     id="rect359"
     style="fill:#e7c41a" />
  <path
     d="m 27.42463,63.125321 0,1.488 -3.179,0.307 -1.325,-10.887 -1.367,0.266 -1.334,-12.998 3.551,-0.648 -0.127,-1.179 15.31,-1.635 -0.269,-2.516 3.627,-0.387 0.269,2.516 1.002,-0.107 0.234,2.187 4.524,-0.242 1.756,17.299 -9.426,1.086 -0.439,-4.509 -14.949,1.6 -0.125,-1.168 -0.684,0.133 0.514,4.132 1.81,-0.233 0.203,-0.021 1.112,-0.172 -10e-4,-0.007 8.346,-0.893 0.179,1.677 -4.468,0.479 0.41,3.827 z"
     id="polygon361"
     style="fill:#e7c41a" />
  <path
     d="m 5.80563,62.613321 1.348,-0.145 -1.807,-16.871 -4.978,0.528 1.806,16.877 0.879,-0.094 0,2.435 2.752,0 z"
     id="polygon363"
     style="fill:#e7c41a" />
  <path
     d="m 51.59663,60.283321 -0.125,-1.582 -3.7,0.346 -0.1,-0.933 -13.838,1.48 0.355,3.315 13.838,-1.482 -0.077,-0.722 z"
     id="polygon365"
     style="fill:#e7c41a" />
  <path
     d="m 53.59663,34.258321 -5.57,-0.039 0,2.352 5.57,0 z"
     id="polygon367"
     style="fill:#e7c41a" />
  <path
     d="m 161.47063,40.844321 v 4.344 h -27.125 v -0.008 h -3.125 v -12.461 h -39.374 v 13.625 h 1.209 l -0.021,4.281 h -3.583 l 0.021,0.013 h -1.624997 v -18.794 h -13 v 27 h 13 v -6.706 h 1.624997 v 9.081 H 75.347633 v 3.125 h 14.124997 4.125 34.249 v 2.656 h -5.405 v 2.938 h 5.405 v 1.281 h -6.875 v -3.875 h -16.124 v 5.125 h 15.812 0.312 6.875 l 0.062,5.77 h -17.625 v 2.938 h 17.625 l -0.006,0.576 -17.562,-0.019 v 2.938 l 17.534,0.019 -0.03,3.279 h -1.858 v -1.51 h -21.641 v 1.51 h -5.957 v -3.208 h 10.582 v -5.167 h -7.938 v -6.375 h 1.812 v -2.875 -3.75 h -5.125 -3 -8.999997 v 7.5 H 96.49063 v 5.5 H 86.469633 v 4.125 h -11.125 v 1.042 h 5.125 v 2.583 h -24.082 v 3.249999 h -4.791 v 32.25001 h 2.375 v -1.5 h 1.918 v 1.5 h 6.582 V 92.76132 h 4.042 v 30.08401 h 14.812 1.479 3.666 5.665997 37.749 v 2.253 h -4.5 v 7.334 h 3.396 l 7.771,-5.584 v -4.003 h 7.262 v -4.50001 h 5.905 v -3.875 h -5.905 v -1.125 h 10.905 V 87.345321 h -5.562 v -4.625 -0.75 -2.188 h -14.812 v 2.938 h 4.125 v 3.74 h -4.125 v 1.51 h -3.75 v -14.156 h 3.75 v 2.031 h 5.625 l -0.03,-4.969 h -3.312 -0.031 -6 v -6.531 h 0.625 v -1.849 h 3.125 v 1.599 h 35 v -6 h 15.875 v -17.25 l -23.752,-10e-4 0,0 z m -33.833,9.75 h -33.416 v -4.25 h 33.416 v 4.25 z M 84.471633,117.88632 h -1.666 v -25.126 h 1.666 v 25.126 z M 97.72163,74.094321 v -3.75 h 2.125 v 2.875 h 0.021 v 6.375 h -2.146 v -5.5 z m 36.624,-14.371 h -3.125 v -9.129 h -2.416 v -4.25 h 1.083 v 0.002 h 4.458 v 13.377 l 0,0 z"
     id="path369"
     style="fill:#e7c41a" />
  <path
     d="m 171.84563,69.719321 0,-1.375 -3.5,0 0,-0.875 -1.561,0 0,9.25 1.561,0 0,-4.25 3.625,0 0,-1.375 -3.625,0 0,-1.375 z"
     id="polygon371"
     style="fill:#e7c41a" />
  <path
     d="m 208.97063,116.40632 4.75,7.02101 7.625,-4.58401 -0.625,-3.75 c 0,0 -3,-3.41 -6.375,-2.518 -3.375,0.893 -5.375,3.831 -5.375,3.831 z"
     id="path373"
     style="fill:#e7c41a" />
  <path
     d="m 185.09563,147.27633 3.894,6.443 1.856,-0.625 2.125,3.875 c 0,0 4,-1 3.125,-2.875 -0.875,-1.875 -6.25,-9.371 -6.25,-9.371 l -4.75,2.553 z"
     id="path375"
     style="fill:#e7c41a" />
  <path
     d="m 200.72063,155.46932 1.056,-0.733 0.069,0.108 2.655,-2 -8.28,-11.979 -2.479,1.743 6.859,10.356 -6.066,5.38 1.686,5 8.28,2.5 6.345,-5.375 -4.125,-5.625 -4.03,2.5 z"
     id="polygon377"
     style="fill:#e7c41a" />
  <path
     d="m 178.15963,151.96932 3.375,3.875 -9.314,6.375 -2,-3.313 z"
     id="polygon379"
     style="fill:#e7c41a" />
  <path
     d="m 185.09563,159.59432 -2.25,-2.625 -3.095,1.937 2.47,3.313 z"
     id="polygon381"
     style="fill:#e7c41a" />
  <path
     d="m 220.59563,127.96432 -3.375,-3.745 -3.75,3.5 2.75,3.99 z"
     id="polygon383"
     style="fill:#e7c41a" />
  <path
     d="m 217.03463,89.65632 -1.875,-1.909999 -5.189,5.004999 1.33,2.28 z"
     id="polygon385"
     style="fill:#e7c41a" />
  <path
     d="m 221.34563,91.96932 -2.125,-2.938 -8.125,8.563 2.375,2.75 z"
     id="polygon387"
     style="fill:#e7c41a" />
  <path
     d="m 208.97063,87.746321 -11,0 0,3.642999 11,-0.108 z"
     id="polygon389"
     style="fill:#e7c41a" />
  <path
     d="m 179.28462,61.21933 4.062,0 0,4 -4.062,0 z"
     id="rect391"
     style="fill:#e7c41a" />
  <path
     d="m 152.68458,134.64916 -6.3678,4.2177 -1.04034,-1.57069 6.3678,-4.2177 z"
     id="rect395"
     style="fill:#e7c41a" />
  <path
     d="m 155.02236,138.30769 -6.36857,4.21694 -1.04071,-1.57172 6.36857,-4.21694 z"
     id="rect397"
     style="fill:#e7c41a" />
  <path
     d="m 157.30935,141.88836 -6.3669,4.21584 -1.0396,-1.57005 6.3669,-4.21583 z"
     id="rect399"
     style="fill:#e7c41a" />
  <path
     d="m 17.80563,107.67432 -2.917,0 0,5.834 2.917,0 0,4.378 13.5,0 0,-6.694 2.916,0 0,10.152 9.667,0 0,-12.336 -9.667,0 0,1.1 -2.916,0 0,-13.933 1.25,0 0,2.254 11.333,0 0,-6.795 -11.333,0 0,3.397 -1.25,0 0,-1.19 0,-1.5 0,-2.289 -5.417,0 0,2.289 -2.833,0 0,-1.747 -2.917,0 0,1.747 -2.333,0 z"
     id="polygon401"
     style="fill:#e7c41a" />
  <path
     d="m 57.396622,69.527328 8.340999,0 0,3.586 -8.340999,0 z"
     id="rect403"
     style="fill:#e7c41a" />
</svg>
