<?xml version="1.0" encoding="UTF-8" standalone="no"?>
<!-- Created with Inkscape (http://www.inkscape.org/) -->

<svg
   xmlns:dc="http://purl.org/dc/elements/1.1/"
   xmlns:cc="http://creativecommons.org/ns#"
   xmlns:rdf="http://www.w3.org/1999/02/22-rdf-syntax-ns#"
   xmlns:svg="http://www.w3.org/2000/svg"
   xmlns="http://www.w3.org/2000/svg"
   xmlns:sodipodi="http://sodipodi.sourceforge.net/DTD/sodipodi-0.dtd"
   xmlns:inkscape="http://www.inkscape.org/namespaces/inkscape"
   width="221.57703"
   height="165.85001"
   id="svg3823"
   version="1.1"
   inkscape:version="0.48.2 r9819"
   sodipodi:docname="Ingolstadt.svg">
  <defs
     id="defs3825" />
  <sodipodi:namedview
     id="base"
     pagecolor="#ffffff"
     bordercolor="#666666"
     borderopacity="1.0"
     inkscape:pageopacity="0.0"
     inkscape:pageshadow="2"
     inkscape:zoom="1.4"
     inkscape:cx="-64.950385"
     inkscape:cy="21.540359"
     inkscape:document-units="px"
     inkscape:current-layer="layer1"
     showgrid="false"
     showguides="true"
     inkscape:guide-bbox="true"
     fit-margin-top="0.3"
     fit-margin-left="0.3"
     fit-margin-right="0.3"
     fit-margin-bottom="0.3"
     inkscape:window-width="1366"
     inkscape:window-height="706"
     inkscape:window-x="-8"
     inkscape:window-y="-8"
     inkscape:window-maximized="1" />
  <metadata
     id="metadata3828">
    <rdf:RDF>
      <cc:Work
         rdf:about="">
        <dc:format>image/svg+xml</dc:format>
        <dc:type
           rdf:resource="http://purl.org/dc/dcmitype/StillImage" />
        <dc:title />
      </cc:Work>
    </rdf:RDF>
  </metadata>
  <g
     inkscape:label="Ebene 1"
     inkscape:groupmode="layer"
     id="layer1"
     transform="translate(-12.06863,-12.294321)">
    <path
       transform="translate(-299.44237,-56.681679)"
       style="fill:#424242;fill-opacity:1"
       d="m 471.413,73.026 -6,0 0,-3.75 -16.125,0 0,3.75 -3.125,0 0,37.125 25.25,0 z"
       id="polygon249" />
    <path
       style="fill:#424242;fill-opacity:1"
       d="m 199.97063,57.469326 22.625,0 0,18.875 -22.625,0 z"
       id="rect251" />
    <path
       transform="translate(-299.44237,-56.681679)"
       style="fill:#424242;fill-opacity:1"
       d="m 502.163,151.401 0,2 5.375,0 0,1.125 14.75,0 0,-10 -11.875,0 0,-3 12.125,0 0,-4.625 -21.625,0 0,4.625 7.5,0 0,3 -0.875,0 -3,0 0,-1.625 -6.5,0 0,1.875 2.25,0 0,3.5 -2.625,0 0,3.125 z"
       id="polygon253" />
    <path
       style="fill:#424242;fill-opacity:1"
       d="m 226.34566,79.46933 7,0 0,17.5 -7,0 z"
       id="rect255" />
    <path
       transform="translate(-299.44237,-56.681679)"
       style="fill:#424242;fill-opacity:1"
       d="m 494.413,135.683 0,1.218 -9,0 0,5.25 5.75,0 0,2 -7.5,0 0,2.875 7.5,5.75 3.625,0 0,-10.625 1.25,0 0,-0.343 0,-4.907 0,-1.218 z"
       id="polygon257" />
    <path
       transform="translate(-299.44237,-56.681679)"
       style="fill:#424242;fill-opacity:1"
       d="m 439.163,81.651 -11.125,0 0,2.875 -8.749,0 0,6.375 8.749,0 0,0.125 11.125,0 z"
       id="polygon259" />
    <path
       style="fill:#424242;fill-opacity:1"
       d="m 115.55464,138.84633 5.667,0 0,3.835 -5.667,0 z"
       id="rect261" />
    <path
       style="fill:#424242;fill-opacity:1"
       d="m 124.13664,139.18134 3.417,0 0,3.5 -3.417,0 z"
       id="rect263" />
    <path
       style="fill:#424242;fill-opacity:1"
       d="m 126.30364,139.18134 2.25,0 0,6 -2.25,0 z"
       id="rect265" />
    <path
       transform="matrix(-0.8333097,0.55280643,-0.55280643,-0.8333097,0,0)"
       style="fill:#424242;fill-opacity:1"
       d="m -67.83783,-222.44037 9.133894,0 0,15.91482 -9.133894,0 z"
       id="rect267" />
    <path
       transform="translate(-299.44237,-56.681679)"
       style="fill:#424242;fill-opacity:1"
       d="m 446.328,210.28 16.193,-9.889 -3.11,-4.528 -6.998,4.528 0.832,1.472 -7.5,5.917 0,-3 -5.082,0 0,5.5 z"
       id="polygon269" />
    <path
       transform="matrix(-0.78790156,0.61580122,-0.61580122,-0.78790156,0,0)"
       style="fill:#424242;fill-opacity:1"
       d="m -64.793404,-228.53357 8.000985,0 0,6.02299 -8.000985,0 z"
       id="rect271" />
    <path
       transform="matrix(-0.78781511,0.61591181,-0.61591181,-0.78781511,0,0)"
       style="fill:#424242;fill-opacity:1"
       d="m -26.523079,-219.22157 4.69691,0 0,3.53393 -4.69691,0 z"
       id="rect273" />
    <path
       transform="matrix(-0.78785304,0.61586329,-0.61586329,-0.78785304,0,0)"
       style="fill:#424242;fill-opacity:1"
       d="m -93.905563,-231.41183 8.000476,0 0,6.02335 -8.000476,0 z"
       id="rect275" />
    <path
       transform="matrix(-0.78798799,0.61569061,-0.61569061,-0.78798799,0,0)"
       style="fill:#424242;fill-opacity:1"
       d="m -99.834099,-234.92786 3.816058,0 0,2.71304 -3.816058,0 z"
       id="rect277" />
    <path
       transform="matrix(-0.78790156,0.61580122,-0.61580122,-0.78790156,0,0)"
       style="fill:#424242;fill-opacity:1"
       d="m -87.736107,-244.57393 14.934971,0 0,11.33498 -14.934971,0 z"
       id="rect279" />
    <path
       style="fill:#424242;fill-opacity:1"
       inkscape:connector-curvature="0"
       d="m 198.82163,111.68632 -24.869,16.461 6.721,10.15201 24.611,-16.28901 v 0.001 l 0.043,-0.03 0.215,-0.143 -0.004,-0.008 6.287,-4.486 c 0,0 -2.299,-8.065 -13.004,-5.658 z"
       id="path281" />
    <path
       style="fill:#424242;fill-opacity:1"
       d="m 170.65962,103.28133 3.293,0 0,10.113 -3.293,0 z"
       id="rect283" />
    <path
       style="fill:#424242;fill-opacity:1"
       d="m 172.30464,109.59433 6.479,0 0,2.75 -6.479,0 z"
       id="rect285" />
    <path
       style="fill:#424242;fill-opacity:1"
       d="m 172.59563,103.28133 2.438,0 0,2.938 -2.438,0 z"
       id="rect287" />
    <path
       style="fill:#424242;fill-opacity:1"
       d="m 176.59563,104.75132 2.894,0 0,2.719 -2.894,0 z"
       id="rect289" />
    <path
       style="fill:#424242;fill-opacity:1"
       d="m 169.97063,116.03133 6.625,0 0,4.938 -6.625,0 z"
       id="rect291" />
    <path
       style="fill:#424242;fill-opacity:1"
       d="m 175.03462,116.03133 5.312,0 0,3.709 -5.312,0 z"
       id="rect293" />
    <path
       style="fill:#424242;fill-opacity:1"
       d="m 182.53462,111.68633 3.75,0 0,4.033 -3.75,0 z"
       id="rect295" />
    <path
       style="fill:#424242;fill-opacity:1"
       d="m 181.73964,104.75132 3.856,0 0,5.28 -3.856,0 z"
       id="rect297" />
    <path
       style="fill:#424242;fill-opacity:1"
       d="m 184.22063,104.75132 7.062,0 0,1.719 -7.062,0 z"
       id="rect299" />
    <path
       style="fill:#424242;fill-opacity:1"
       d="m 190.15962,107.03133 5.688,0 0,3.938 -5.688,0 z"
       id="rect301" />
    <path
       style="fill:#424242;fill-opacity:1"
       d="m 170.28462,97.84433 11.938,0 0,3.188 -11.938,0 z"
       id="rect303" />
    <path
       style="fill:#424242;fill-opacity:1"
       d="m 44.555618,111.92433 11.333,0 0,6.795 -11.333,0 z"
       id="rect305" />
    <path
       style="fill:#424242;fill-opacity:1"
       d="m 57.971634,123.75833 2,0 0,9.505 -2,0 z"
       id="rect307" />
    <path
       style="fill:#424242;fill-opacity:1"
       d="m 13.305618,103.25833 13.916001,0 0,3.043 -13.916001,0 z"
       id="rect309" />
    <path
       transform="translate(-299.44237,-56.681679)"
       style="fill:#424242;fill-opacity:1"
       d="m 317.248,145.401 3.916,7.522 10.417,0 0,-7.522 z"
       id="polygon311" />
    <path
       style="fill:#424242;fill-opacity:1"
       d="m 59.971634,99.006332 4.25,0 0,1.671998 -4.25,0 z"
       id="rect313" />
    <path
       transform="translate(-299.44237,-56.681679)"
       style="fill:#424242;fill-opacity:1"
       d="m 373.331,108.214 10.75,0 0,-8.026 -10.75,0 0,4.541 -2.333,0 0,-2.458 -5.167,0 0,3.917 -2.917,0 0,8.09 4.25,0 0,-7.09 0.666,0 0,6.257 3.168,0 0,-6.257 2.333,0 z"
       id="polygon315" />
    <path
       style="fill:#424242;fill-opacity:1"
       d="m 77.387619,53.469326 5.25,0 0,2.87 -5.25,0 z"
       id="rect317" />
    <path
       style="fill:#424242;fill-opacity:1"
       d="m 77.387619,65.71933 5.25,0 0,2.87 -5.25,0 z"
       id="rect319" />
    <path
       style="fill:#424242;fill-opacity:1"
       d="m 77.387619,57.344326 5.25,0 0,7.245 -5.25,0 z"
       id="rect321" />
    <path
       transform="translate(-299.44237,-56.681679)"
       style="fill:#424242;fill-opacity:1"
       d="m 319.689,127.987 -1.451,-13.547 8.692,-0.967 1.806,16.123 -6.164,0.66 -0.273,-2.548 z"
       id="polygon323" />
    <path
       transform="matrix(-0.99431256,0.10650135,-0.10650135,-0.99431256,0,0)"
       style="fill:#424242;fill-opacity:1"
       d="m -40.553585,-98.581276 11.006861,0 0,4.197947 -11.006861,0 z"
       id="rect325" />
    <path
       transform="matrix(-0.99431256,0.10650135,-0.10650135,-0.99431256,0,0)"
       style="fill:#424242;fill-opacity:1"
       d="m -54.555794,-97.408867 11.005861,0 0,4.197947 -11.005861,0 z"
       id="rect327" />
    <path
       transform="matrix(-0.99431256,0.10650135,-0.10650135,-0.99431256,0,0)"
       style="fill:#424242;fill-opacity:1"
       d="m -63.951088,-97.53405 7.481906,0 0,3.727953 -7.481906,0 z"
       id="rect329" />
    <path
       transform="translate(-299.44237,-56.681679)"
       style="fill:#424242;fill-opacity:1"
       d="m 346.621,141.473 17.441,-1.868 -0.177,-1.677 -17.444,1.867 -0.618,-5.77 -9.085,0.969 1.176,10.979 9.084,-0.973 z"
       id="polygon331" />
    <path
       transform="matrix(-0.99434428,0.10620473,-0.10620473,-0.99434428,0,0)"
       style="fill:#424242;fill-opacity:1"
       d="m -45.595245,-86.192322 6.253721,0 0,3.203858 -6.253721,0 z"
       id="rect333" />
    <path
       transform="translate(-299.44237,-56.681679)"
       style="fill:#424242;fill-opacity:1"
       d="m 357.025,132.897 -1.891,0.202 0.341,3.185 1.584,-0.169 0.142,1.322 5.145,-0.55 -0.332,-3.101 -2.344,0.251 -0.248,-2.33 -2.495,0.266 z"
       id="polygon335" />
    <path
       transform="matrix(-0.99435597,0.1060953,-0.1060953,-0.99435597,0,0)"
       style="fill:#424242;fill-opacity:1"
       d="m -56.33263,-82.387871 3.741165,0 0,2.2541 -3.741165,0 z"
       id="rect337" />
    <path
       transform="matrix(-0.99433372,0.1063036,-0.1063036,-0.99433372,0,0)"
       style="fill:#424242;fill-opacity:1"
       d="m -60.580448,-86.236343 5.569811,0 0,2.254923 -5.569811,0 z"
       id="rect339" />
    <path
       style="fill:#424242;fill-opacity:1"
       d="m 75.886642,73.574326 6.417,0 0,2.770999 -6.417,0 z"
       id="rect341" />
    <path
       style="fill:#424242;fill-opacity:1"
       d="m 74.721634,77.343323 8.915,0 0,2.537 -8.915,0 z"
       id="rect343" />
    <path
       style="fill:#424242;fill-opacity:1"
       d="m 78.636642,81.246323 5,0 0,2.599 -5,0 z"
       id="rect345" />
    <path
       style="fill:#424242;fill-opacity:1"
       d="m 70.555618,74.496323 2.082,0 0,4.849 -2.082,0 z"
       id="rect347" />
    <path
       style="fill:#424242;fill-opacity:1"
       d="m 70.555618,70.305328 4.166,0 0,2.88 -4.166,0 z"
       id="rect349" />
    <path
       transform="translate(-299.44237,-56.681679)"
       style="fill:#424242;fill-opacity:1"
       d="m 365.039,125.704 10.29,0 0,-6.259 0,-1.003 0,-4.416 -3.249,0 0,1.833 -8.416,0 0,3.586 1.375,0 z"
       id="polygon351" />
    <path
       transform="translate(-299.44237,-56.681679)"
       style="fill:#424242;fill-opacity:1"
       d="m 356.746,92.104 -2.5,0 0,5.921 0,2.163 2.5,0 1.039,0 2.627,0 0,-2.163 0,-2.834 -2.627,0 0,2.834 -1.039,0 z"
       id="polygon353" />
    <path
       transform="translate(-299.44237,-56.681679)"
       style="fill:#424242;fill-opacity:1"
       d="m 367.83,98.025 -3.768,0 0,-1.542 -2.15,0 0,3.208 0.417,0 1.733,0 3.768,0 z"
       id="polygon355" />
    <path
       transform="matrix(-0.99431256,0.10650135,-0.10650135,-0.99431256,0,0)"
       style="fill:#424242;fill-opacity:1"
       d="m -39.756439,-51.186665 14.097821,0 0,12.865838 -14.097821,0 z"
       id="rect357" />
    <path
       transform="matrix(-0.99431256,0.10650135,-0.10650135,-0.99431256,0,0)"
       style="fill:#424242;fill-opacity:1"
       d="m -46.377918,-49.676487 5.070936,0 0,4.627941 -5.070936,0 z"
       id="rect359" />
    <path
       transform="translate(-299.44237,-56.681679)"
       style="fill:#424242;fill-opacity:1"
       d="m 338.867,131.807 0,1.488 -3.179,0.307 -1.325,-10.887 -1.367,0.266 -1.334,-12.998 3.551,-0.648 -0.127,-1.179 15.31,-1.635 -0.269,-2.516 3.627,-0.387 0.269,2.516 1.002,-0.107 0.234,2.187 4.524,-0.242 1.756,17.299 -9.426,1.086 -0.439,-4.509 -14.949,1.6 -0.125,-1.168 -0.684,0.133 0.514,4.132 1.81,-0.233 0.203,-0.021 1.112,-0.172 -0.001,-0.007 8.346,-0.893 0.179,1.677 -4.468,0.479 0.41,3.827 z"
       id="polygon361" />
    <path
       transform="translate(-299.44237,-56.681679)"
       style="fill:#424242;fill-opacity:1"
       d="m 317.248,131.295 1.348,-0.145 -1.807,-16.871 -4.978,0.528 1.806,16.877 0.879,-0.094 0,2.435 2.752,0 z"
       id="polygon363" />
    <path
       transform="translate(-299.44237,-56.681679)"
       style="fill:#424242;fill-opacity:1"
       d="m 363.039,128.965 -0.125,-1.582 -3.7,0.346 -0.1,-0.933 -13.838,1.48 0.355,3.315 13.838,-1.482 -0.077,-0.722 z"
       id="polygon365" />
    <path
       transform="translate(-299.44237,-56.681679)"
       style="fill:#424242;fill-opacity:1"
       d="m 365.039,102.94 -5.57,-0.039 0,2.352 5.57,0 z"
       id="polygon367" />
    <path
       style="fill:#424242;fill-opacity:1"
       inkscape:connector-curvature="0"
       d="m 173.47063,52.844321 v 4.344 h -27.125 v -0.008 h -3.125 v -12.461 h -39.374 v 13.625 h 1.209 l -0.021,4.281 h -3.583 l 0.021,0.013 h -1.624997 v -18.794 h -13 v 27 h 13 v -6.706 h 1.624997 v 9.081 H 87.347633 v 3.125 h 14.124997 4.125 34.249 v 2.656 h -5.405 v 2.938 h 5.405 v 1.281 h -6.875 v -3.875 h -16.124 v 5.125 h 15.812 0.312 6.875 l 0.062,5.77 h -17.625 v 2.938 h 17.625 l -0.006,0.576 -17.562,-0.019 v 2.938 l 17.534,0.019 -0.03,3.279 h -1.858 v -1.51 h -21.641 v 1.51 h -5.957 v -3.208 h 10.582 v -5.167 h -7.938 v -6.375 h 1.812 v -2.875 -3.75 h -5.125 -3 -8.999997 v 7.5 h 10.770997 v 5.5 H 98.469633 v 4.125 h -11.125 v 1.042 h 5.125 v 2.583 h -24.082 v 3.249999 h -4.791 v 32.25001 h 2.375 v -1.5 h 1.918 v 1.5 h 6.582 v -30.08401 h 4.042 v 30.08401 h 14.812 1.479 3.666 5.665997 37.749 v 2.253 h -4.5 v 7.334 h 3.396 l 7.771,-5.584 v -4.003 h 7.262 v -4.50001 h 5.905 v -3.875 h -5.905 v -1.125 h 10.905 V 99.345321 h -5.562 v -4.625 -0.75 -2.188 h -14.812 v 2.938 h 4.125 v 3.74 h -4.125 v 1.51 h -3.75 v -14.156 h 3.75 v 2.031 h 5.625 l -0.03,-4.969 h -3.312 -0.031 -6 v -6.531 h 0.625 v -1.849 h 3.125 v 1.599 h 35 v -6 h 15.875 v -17.25 l -23.752,-10e-4 0,0 z m -33.833,9.75 h -33.416 v -4.25 h 33.416 v 4.25 z M 96.471633,129.88632 h -1.666 v -25.126 h 1.666 v 25.126 z M 109.72163,86.094321 v -3.75 h 2.125 v 2.875 h 0.021 v 6.375 h -2.146 v -5.5 z m 36.624,-14.371 h -3.125 v -9.129 h -2.416 v -4.25 h 1.083 v 0.002 h 4.458 v 13.377 l 0,0 z"
       id="path369" />
    <path
       transform="translate(-299.44237,-56.681679)"
       style="fill:#424242;fill-opacity:1"
       d="m 483.288,138.401 0,-1.375 -3.5,0 0,-0.875 -1.561,0 0,9.25 1.561,0 0,-4.25 3.625,0 0,-1.375 -3.625,0 0,-1.375 z"
       id="polygon371" />
    <path
       style="fill:#424242;fill-opacity:1"
       inkscape:connector-curvature="0"
       d="m 220.97063,128.40632 4.75,7.02101 7.625,-4.58401 -0.625,-3.75 c 0,0 -3,-3.41 -6.375,-2.518 -3.375,0.893 -5.375,3.831 -5.375,3.831 z"
       id="path373" />
    <path
       style="fill:#424242;fill-opacity:1"
       inkscape:connector-curvature="0"
       d="m 197.09563,159.27633 3.894,6.443 1.856,-0.625 2.125,3.875 c 0,0 4,-1 3.125,-2.875 -0.875,-1.875 -6.25,-9.371 -6.25,-9.371 l -4.75,2.553 z"
       id="path375" />
    <path
       transform="translate(-299.44237,-56.681679)"
       style="fill:#424242;fill-opacity:1"
       d="m 512.163,224.151 1.056,-0.733 0.069,0.108 2.655,-2 -8.28,-11.979 -2.479,1.743 6.859,10.356 -6.066,5.38 1.686,5 8.28,2.5 6.345,-5.375 -4.125,-5.625 -4.03,2.5 z"
       id="polygon377" />
    <path
       transform="translate(-299.44237,-56.681679)"
       style="fill:#424242;fill-opacity:1"
       d="m 489.602,220.651 3.375,3.875 -9.314,6.375 -2,-3.313 z"
       id="polygon379" />
    <path
       transform="translate(-299.44237,-56.681679)"
       style="fill:#424242;fill-opacity:1"
       d="m 496.538,228.276 -2.25,-2.625 -3.095,1.937 2.47,3.313 z"
       id="polygon381" />
    <path
       transform="translate(-299.44237,-56.681679)"
       style="fill:#424242;fill-opacity:1"
       d="m 532.038,196.646 -3.375,-3.745 -3.75,3.5 2.75,3.99 z"
       id="polygon383" />
    <path
       transform="translate(-299.44237,-56.681679)"
       style="fill:#424242;fill-opacity:1"
       d="m 528.477,158.338 -1.875,-1.91 -5.189,5.005 1.33,2.28 z"
       id="polygon385" />
    <path
       transform="translate(-299.44237,-56.681679)"
       style="fill:#424242;fill-opacity:1"
       d="m 532.788,160.651 -2.125,-2.938 -8.125,8.563 2.375,2.75 z"
       id="polygon387" />
    <path
       transform="translate(-299.44237,-56.681679)"
       style="fill:#424242;fill-opacity:1"
       d="m 520.413,156.428 -11,0 0,3.643 11,-0.108 z"
       id="polygon389" />
    <path
       style="fill:#424242;fill-opacity:1"
       d="m 191.28462,73.21933 4.062,0 0,4 -4.062,0 z"
       id="rect391" />
    <path
       inkscape:connector-curvature="0"
       id="rect395"
       d="m 164.68458,146.64916 -6.3678,4.2177 -1.04034,-1.57069 6.3678,-4.2177 z"
       style="fill:#424242;fill-opacity:1" />
    <path
       inkscape:connector-curvature="0"
       id="rect397"
       d="m 167.02236,150.30769 -6.36857,4.21694 -1.04071,-1.57172 6.36857,-4.21694 z"
       style="fill:#424242;fill-opacity:1" />
    <path
       inkscape:connector-curvature="0"
       id="rect399"
       d="m 169.30935,153.88836 -6.3669,4.21584 -1.0396,-1.57005 6.3669,-4.21583 z"
       style="fill:#424242;fill-opacity:1" />
    <path
       transform="translate(-299.44237,-56.681679)"
       style="fill:#424242;fill-opacity:1"
       d="m 329.248,176.356 -2.917,0 0,5.834 2.917,0 0,4.378 13.5,0 0,-6.694 2.916,0 0,10.152 9.667,0 0,-12.336 -9.667,0 0,1.1 -2.916,0 0,-13.933 1.25,0 0,2.254 11.333,0 0,-6.795 -11.333,0 0,3.397 -1.25,0 0,-1.19 0,-1.5 0,-2.289 -5.417,0 0,2.289 -2.833,0 0,-1.747 -2.917,0 0,1.747 -2.333,0 z"
       id="polygon401" />
    <path
       style="fill:#424242;fill-opacity:1"
       d="m 69.396622,81.527328 8.340999,0 0,3.586 -8.340999,0 z"
       id="rect403" />
  </g>
</svg>
