<?xml version="1.0" encoding="UTF-8" standalone="no"?>
<!-- Generator: Adobe Illustrator 16.0.0, SVG Export Plug-In . SVG Version: 6.00 Build 0)  -->

<svg
   xmlns:dc="http://purl.org/dc/elements/1.1/"
   xmlns:cc="http://creativecommons.org/ns#"
   xmlns:rdf="http://www.w3.org/1999/02/22-rdf-syntax-ns#"
   xmlns:svg="http://www.w3.org/2000/svg"
   xmlns="http://www.w3.org/2000/svg"
   xmlns:sodipodi="http://sodipodi.sourceforge.net/DTD/sodipodi-0.dtd"
   xmlns:inkscape="http://www.inkscape.org/namespaces/inkscape"
   version="1.1"
   id="Ebene_1"
   x="0px"
   y="0px"
   width="538.58px"
   height="283.46px"
   viewBox="0 0 538.58 283.46"
   enable-background="new 0 0 538.58 283.46"
   xml:space="preserve"
   inkscape:version="0.48.2 r9819"
   sodipodi:docname="2nd Hall Layout.svg"><metadata
   id="metadata151"><rdf:RDF><cc:Work
       rdf:about=""><dc:format>image/svg+xml</dc:format><dc:type
         rdf:resource="http://purl.org/dc/dcmitype/StillImage" /></cc:Work></rdf:RDF></metadata><defs
   id="defs149" /><sodipodi:namedview
   pagecolor="#ffffff"
   bordercolor="#666666"
   borderopacity="1"
   objecttolerance="10"
   gridtolerance="10"
   guidetolerance="10"
   inkscape:pageopacity="0"
   inkscape:pageshadow="2"
   inkscape:window-width="1920"
   inkscape:window-height="1018"
   id="namedview147"
   showgrid="false"
   inkscape:zoom="1.8118149"
   inkscape:cx="-188.8334"
   inkscape:cy="164.58952"
   inkscape:window-x="-8"
   inkscape:window-y="-8"
   inkscape:window-maximized="1"
   inkscape:current-layer="Ebene_1" />

<path
   style="fill:#424242;fill-opacity:1;stroke:none"
   d="m 151.33299,54.959999 3.333,0 0,13.667 -3.333,0 z"
   id="rect5" />
<path
   style="fill:#424242;fill-opacity:1;stroke:none"
   d="m 210.83299,54.959999 3.333,0 0,13.667 -3.333,0 z"
   id="rect7" />
<path
   style="fill:#424242;fill-opacity:1;stroke:none"
   d="m 160.58299,54.959999 4.667,0 0,13.667 -4.667,0 z"
   id="rect9" />
<path
   style="fill:#424242;fill-opacity:1;stroke:none"
   d="m 170.5,54.959999 4.667,0 0,13.667 -4.667,0 z"
   id="rect11" />
<path
   style="fill:#424242;fill-opacity:1;stroke:none"
   d="m 180.41701,54.959999 4.666,0 0,13.667 -4.666,0 z"
   id="rect13" />
<path
   style="fill:#424242;fill-opacity:1;stroke:none"
   d="m 190.33299,54.959999 4.667,0 0,13.667 -4.667,0 z"
   id="rect15" />
<path
   style="fill:#424242;fill-opacity:1;stroke:none"
   d="m 200.25,54.959999 4.667,0 0,13.667 -4.667,0 z"
   id="rect17" />
<path
   style="fill:#424242;fill-opacity:1;stroke:none"
   d="m 151.33299,77.125999 3.333,0 0,26.500001 -3.333,0 z"
   id="rect19" />
<path
   style="fill:#424242;fill-opacity:1;stroke:none"
   d="m 210.83299,77.125999 3.333,0 0,26.500001 -3.333,0 z"
   id="rect21" />
<path
   style="fill:#424242;fill-opacity:1;stroke:none"
   d="m 160.58299,77.125999 4.667,0 0,26.500001 -4.667,0 z"
   id="rect23" />
<path
   style="fill:#424242;fill-opacity:1;stroke:none"
   d="m 170.5,77.125999 4.667,0 0,26.500001 -4.667,0 z"
   id="rect25" />
<path
   style="fill:#424242;fill-opacity:1;stroke:none"
   d="m 180.41701,77.125999 4.666,0 0,26.500001 -4.666,0 z"
   id="rect27" />
<path
   style="fill:#424242;fill-opacity:1;stroke:none"
   d="m 190.33299,77.125999 4.667,0 0,26.500001 -4.667,0 z"
   id="rect29" />
<path
   style="fill:#424242;fill-opacity:1;stroke:none"
   d="m 200.25,77.125999 4.667,0 0,26.500001 -4.667,0 z"
   id="rect31" />
<path
   style="fill:#424242;fill-opacity:1;stroke:none"
   d="m 161.75,115.21 97.25,0 0,18.75 -97.25,0 z"
   id="rect33" />
<path
   style="fill:#424242;fill-opacity:1;stroke:none"
   d="m 161.75,168.46001 97.25,0 0,18.75 -97.25,0 z"
   id="rect35" />
<path
   style="fill:#424242;fill-opacity:1;stroke:none"
   d="m 164,192.46001 95,0 0,15.75 -95,0 z"
   id="rect37" />
<path
   style="fill:#424242;fill-opacity:1;stroke:none"
   d="m 186.75,214.71001 66.75,0 0,7.875 -66.75,0 z"
   id="rect39" />
<path
   style="fill:#424242;fill-opacity:1;stroke:none"
   d="m 259,214.71001 16.75,0 0,18.125 -16.75,0 z"
   id="rect41" />
<path
   style="fill:#424242;fill-opacity:1;stroke:none"
   d="m 275.75,214.71001 12.75,0 0,18.125 -12.75,0 z"
   id="rect43" />
<path
   style="fill:#424242;fill-opacity:1;stroke:none"
   d="m 272.75,184.71001 12.75,0 0,12.75 -12.75,0 z"
   id="rect45" />
<path
   style="fill:#424242;fill-opacity:1;stroke:none"
   d="m 285.5,184.71001 12.75,0 0,12.75 -12.75,0 z"
   id="rect47" />
<path
   style="fill:#424242;fill-opacity:1;stroke:none"
   d="m 341.5,177.83501 8.167,0 0,14.625 -8.167,0 z"
   id="rect49" />
<path
   style="fill:#424242;fill-opacity:1;stroke:none"
   d="m 327,199.96001 8.167,0 0,14.625 -8.167,0 z"
   id="rect51" />
<path
   style="fill:#424242;fill-opacity:1;stroke:none"
   d="m 335.16699,199.96001 10.417,0 0,14.625 -10.417,0 z"
   id="rect53" />
<path
   style="fill:#424242;fill-opacity:1;stroke:none"
   d="m 347.41699,199.96001 10.417,0 0,14.625 -10.417,0 z"
   id="rect55" />
<path
   style="fill:#424242;fill-opacity:1;stroke:none"
   d="m 349.66699,177.83501 8.167,0 0,14.625 -8.167,0 z"
   id="rect57" />
<path
   style="fill:#424242;fill-opacity:1;stroke:none"
   d="m 288.5,205.96001 7.25,0 0,8.625 -7.25,0 z"
   id="rect59" />
<path
   style="fill:#424242;fill-opacity:1;stroke:none"
   d="m 295.75,205.96001 8.25,0 0,8.625 -8.25,0 z"
   id="rect61" />
<path
   style="fill:#424242;fill-opacity:1;stroke:none"
   d="m 304,205.96001 12.5,0 0,8.625 -12.5,0 z"
   id="rect63" />
<path
   style="fill:#424242;fill-opacity:1;stroke:none"
   d="m 316.5,210.272 10.5,0 0,4.313 -10.5,0 z"
   id="rect65" />
<path
   style="fill:#424242;fill-opacity:1;stroke:none"
   d="m 316.5,205.96001 10.5,0 0,4.313 -10.5,0 z"
   id="rect67" />
<path
   style="fill:#424242;fill-opacity:1;stroke:none"
   d="m 186.75,224.96001 66.75,0 0,7.875 -66.75,0 z"
   id="rect69" />
<path
   style="fill:#424242;fill-opacity:1;stroke:none"
   d="m 161.75,139.46001 97.25,0 0,22 -97.25,0 z"
   id="rect71" />
<path
   style="fill:#424242;fill-opacity:1;stroke:none"
   d="m 275.75,137.96001 46,0 0,8.75 -46,0 z"
   id="rect73" />
<path
   style="fill:#424242;fill-opacity:1;stroke:none"
   d="m 330,139.46001 25.25,0 0,7.25 -25.25,0 z"
   id="rect75" />
<path
   style="fill:#424242;fill-opacity:1;stroke:none"
   d="m 353.75,116.46 17.25,0 0,20.25 -17.25,0 z"
   id="rect77" />
<path
   style="fill:#424242;fill-opacity:1;stroke:none"
   d="m 267.375,120.96 82.292,0 0,15.75 -82.292,0 z"
   id="rect79" />
<path
   style="fill:#424242;fill-opacity:1;stroke:none"
   d="m 393.25,155.96001 10.5,0 0,12.5 -10.5,0 z"
   id="rect81" />
<path
   style="fill:#424242;fill-opacity:1;stroke:none"
   d="m 380.25,155.96001 23.5,0 0,57.5 -23.5,0 z"
   id="rect83" />
<path
   style="fill:#424242;fill-opacity:1;stroke:none"
   d="m 357.83401,213.46001 45.91601,0 0,11.5 -45.91601,0 z"
   id="rect85" />
<path
   style="fill:#424242;fill-opacity:1;stroke:none"
   d="m 380.25,80.209999 11.75,0 0,60.250001 -11.75,0 z"
   id="rect87" />
<path
   style="fill:#424242;fill-opacity:1;stroke:none"
   d="m 392.625,80.209999 11.75,0 0,60.250001 -11.75,0 z"
   id="rect89" />
<path
   style="fill:#424242;fill-opacity:1;stroke:none"
   d="m 72.16185,105.71 30.58815,0 0,31 -30.58815,0 z"
   id="rect91" />
<path
   style="fill:#424242;fill-opacity:1;stroke:none"
   d="m 125.5,172.21001 7.75,0 0,22.5 -7.75,0 z"
   id="rect93" />
<path
   style="fill:#424242;fill-opacity:1;stroke:none"
   d="m 137.75,172.21001 7.75,0 0,22.5 -7.75,0 z"
   id="rect95" />
<path
   style="fill:#424242;fill-opacity:1;stroke:none"
   d="m 92.5,170.94162 29.25,0 0,2.96353 -29.25,0 z"
   id="rect97" />
<path
   style="fill:#424242;fill-opacity:1;stroke:none"
   d="m 92.597572,192.22075 29.249998,0 0,2.76839 -29.249998,0 z"
   id="rect99" />
<path
   style="fill:#424242;fill-opacity:1;stroke:none"
   d="m 92.5,176.5256 29.25,0 0,2.791 -29.25,0 z"
   id="rect101" />
<path
   style="fill:#424242;fill-opacity:1;stroke:none"
   d="m 92.5,182.064 29.25,0 0,2.791 -29.25,0 z"
   id="rect103" />
<path
   style="fill:#424242;fill-opacity:1;stroke:none"
   d="m 92.5,187.21001 29.25,0 0,2.791 -29.25,0 z"
   id="rect105" />
<path
   style="fill:#424242;fill-opacity:1;stroke:none"
   d="m 47,148.793 20.984451,0 0,63.60584 -20.984451,0 z"
   id="rect107" />
<path
   style="fill:#424242;fill-opacity:1;stroke:none"
   d="m 72.091652,158.793 14.408348,0 0,22.958 -14.408348,0 z"
   id="rect109" />
<path
   style="fill:#424242;fill-opacity:1;stroke:none"
   d="m 17,53.125999 53.25,0 0,52.583001 -53.25,0 z"
   id="rect111" />
<path
   style="fill:#424242;fill-opacity:1;stroke:none"
   d="m 17,136.71001 53.25,0 0,78 -53.25,0 z"
   id="rect113" />
<path
   style="fill:#424242;fill-opacity:1;stroke:none"
   d="m 107.125,222.58501 22.25,0 0,24.208 -22.25,0 z"
   id="rect115" />
<path
   style="fill:#424242;fill-opacity:1;stroke:none"
   d="m 305.75,222.58501 22.25,0 0,24.208 -22.25,0 z"
   id="rect117" />
<path
   style="fill:#424242;fill-opacity:1;stroke:none"
   d="m 72.091652,65.125999 11.241348,0 0,25.25 -11.241348,0 z"
   id="rect119" />
<path
   style="fill:#424242;fill-opacity:1;stroke:none"
   d="m 86.5,53.125999 17.833,0 0,10 -17.833,0 z"
   id="rect121" />












</svg>